<?xml version="1.0" encoding="utf-8"?>
<!-- Generator: Adobe Illustrator 23.0.0, SVG Export Plug-In . SVG Version: 6.00 Build 0)  -->
<svg version="1.1" id="Layer_1" xmlns="http://www.w3.org/2000/svg" xmlns:xlink="http://www.w3.org/1999/xlink" x="0px" y="0px"
	 viewBox="0 0 262.4 69.7" style="enable-background:new 0 0 262.4 69.7;" xml:space="preserve">
<style type="text/css">
	.st0{fill:none;stroke:#F64C72;stroke-width:4.5;}
	.st1{enable-background:new    ;}
	.st2{fill:#666;}
</style>
<title>soso2</title>
<path class="st0" d="M75.9,52.3c-0.2-8.5-4.6-13.6-10.3-17.6c-5.2-3.6-11.1-6.2-16.6-9.4c-2.2-1.2-4.3-2.5-6.3-4
	c-6.4-5-5.3-12.6,2.3-15.7c5.8-2.3,11.9-2.2,17.9-0.7c5.1,1.2,9.7,3.8,13.2,7.7c5.7,6,11.7,11.8,17.6,17.6c0.9,0.9,1.8,1.9,2.7,3
	L75.9,52.3z"/>
<path class="st0" d="M4.7,33l20.4-19c0.8,10.6,7.5,16.1,15.3,20.7c5.2,3,10.7,5.4,15.8,8.4c3.1,1.8,6.1,4,6.2,8.1
	c0.1,4.6-2,7.3-6.6,9.3c-8.8,3.7-24.2,0.9-30.5-6.4C19.7,47.7,13.4,42,7.4,36C6.6,35.1,5.7,34.1,4.7,33z"/>
<g>
	<g class="st1">
		<path class="st2" d="M121.7,54.3c-1.1,0.6-2.6,0.9-4.5,0.9c-5.3,0-7.9-2.9-7.9-8.8V28.7h-5.2v-4.1h5.2v-7.3l4.8-1.6v8.9h7.6v4.1
			h-7.6v16.9c0,2,0.3,3.4,1,4.3c0.7,0.9,1.8,1.3,3.4,1.3c1.2,0,2.3-0.3,3.1-1L121.7,54.3L121.7,54.3z"/>
	</g>
</g>
<g>
	<g class="st1">
		<path class="st2" d="M149.3,54.6h-4.8v-4.7h-0.1c-2.1,3.6-5.2,5.4-9.2,5.4c-3,0-5.3-0.8-7-2.4c-1.7-1.6-2.5-3.7-2.5-6.3
			c0-5.6,3.3-8.9,9.9-9.8l9-1.3c0-5.1-2.1-7.6-6.2-7.6c-3.6,0-6.9,1.2-9.8,3.7v-4.9c2.9-1.9,6.3-2.8,10.2-2.8
			c7,0,10.6,3.7,10.6,11.2L149.3,54.6L149.3,54.6z M144.4,39.4l-7.2,1c-2.2,0.3-3.9,0.9-5,1.7s-1.7,2.2-1.7,4.2
			c0,1.5,0.5,2.7,1.6,3.6c1,0.9,2.4,1.4,4.2,1.4c2.4,0,4.4-0.8,5.9-2.5s2.3-3.8,2.3-6.3v-3.1C144.5,39.4,144.4,39.4,144.4,39.4z"/>
	</g>
</g>
<g>
	<g class="st1">
		<path class="st2" d="M170.3,54.3c-1.1,0.6-2.6,0.9-4.5,0.9c-5.3,0-7.9-2.9-7.9-8.8V28.7h-5.2v-4.1h5.2v-7.3l4.8-1.6v8.9h7.6v4.1
			h-7.6v16.9c0,2,0.3,3.4,1,4.3c0.7,0.9,1.8,1.3,3.4,1.3c1.2,0,2.3-0.3,3.1-1L170.3,54.3L170.3,54.3z"/>
		<path class="st2" d="M179.3,17c-0.9,0-1.6-0.3-2.2-0.9c-0.6-0.6-0.9-1.3-0.9-2.2s0.3-1.6,0.9-2.2c0.6-0.6,1.3-0.9,2.2-0.9
			s1.6,0.3,2.2,0.9s0.9,1.3,0.9,2.2s-0.3,1.6-0.9,2.2C180.8,16.7,180,17,179.3,17z M181.5,54.6h-4.8v-30h4.8V54.6z"/>
		<path class="st2" d="M211.8,53.2c-2.3,1.4-5,2.1-8.2,2.1c-4.3,0-7.7-1.4-10.4-4.2c-2.6-2.8-3.9-6.4-3.9-10.8
			c0-4.9,1.4-8.9,4.2-11.9s6.6-4.5,11.3-4.5c2.6,0,5,0.5,7,1.5v4.9c-2.2-1.6-4.6-2.3-7.1-2.3c-3.1,0-5.6,1.1-7.5,3.3s-3,5-3,8.6
			c0,3.5,0.9,6.3,2.8,8.3s4.3,3,7.4,3c2.6,0,5.1-0.9,7.4-2.6V53.2L211.8,53.2z"/>
		<path class="st2" d="M223.8,54.6H219V10.2h4.8V54.6z"/>
		<path class="st2" d="M257.6,40.8h-21.2c0.1,3.3,1,5.9,2.7,7.7s4.1,2.7,7.1,2.7c3.4,0,6.5-1.1,9.3-3.3v4.5
			c-2.6,1.9-6.1,2.9-10.5,2.9c-4.2,0-7.6-1.4-10-4.1c-2.4-2.7-3.6-6.6-3.6-11.5c0-4.7,1.3-8.5,4-11.4c2.6-2.9,5.9-4.4,9.9-4.4
			s7,1.3,9.1,3.8c2.1,2.5,3.2,6.1,3.2,10.6V40.8z M252.8,36.7c0-2.8-0.7-4.9-2-6.5s-3.1-2.3-5.5-2.3c-2.3,0-4.2,0.8-5.8,2.4
			s-2.6,3.7-2.9,6.4H252.8z"/>
	</g>
</g>
</svg>
